<svg width="1920" height="1080" fill="none" xmlns="http://www.w3.org/2000/svg"><g clip-path="url(#clip0_129_492)"><path fill="#fff" d="M0 0h1920v1080H0z"/><path fill="#0D0D0D" d="M0 0h1922v2041H0z"/><g opacity=".7" filter="url(#filter0_f_129_492)"><path d="M377.741-3.907c140.782-23.348 302.607 34.335 198.346 57.9C471.825 77.56 162.481 193.71 70.502 185.025c-91.98-8.687 96.765-68.846 116.912-145.317 104.261-23.565 37.87-31.049 190.327-43.614z" fill="#BF350A"/></g><g opacity=".7" filter="url(#filter1_f_129_492)"><path d="M1499.49 1099c-64.6 99.9-523.237 83.54-612.996 25.5-89.759-58.04 355.116-113.18 296.996-185-58.11-71.82 102.75-105.421 171.5-144.5 89.76 58.045 209.11 204.099 144.5 304z" fill="#B83107"/></g><g opacity=".7" filter="url(#filter2_f_129_492)"><path d="M1756.49 1046.5c-64.6 99.9-107.74 152.54-197.5 94.5-89.76-58.04-37.88-195.68-96-267.5-58.11-71.82 27.25-308.421 96-347.5 89.76 58.045 262.11 420.599 197.5 520.5z" fill="#721B00"/></g><g opacity=".7" filter="url(#filter3_f_129_492)"><path d="M1871.26 824.037c97.12-33.814 154.51-46.802 184.89 40.462 30.38 87.265-78.11 153.571-76.62 233.431 1.48 79.85-182.42 195.86-250.06 185.99-30.38-87.26 44.66-426.068 141.79-459.883z" fill="#4F0101"/></g></g><defs><filter id="filter0_f_129_492" x="-304.615" y="-359.364" width="1263.94" height="894.85" filterUnits="userSpaceOnUse" color-interpolation-filters="sRGB"><feFlood flood-opacity="0" result="BackgroundImageFix"/><feBlend in="SourceGraphic" in2="BackgroundImageFix" result="shape"/><feGaussianBlur stdDeviation="175" result="effect1_foregroundBlur_129_492"/></filter><filter id="filter1_f_129_492" x="524.488" y="445" width="1343.4" height="1076.03" filterUnits="userSpaceOnUse" color-interpolation-filters="sRGB"><feFlood flood-opacity="0" result="BackgroundImageFix"/><feBlend in="SourceGraphic" in2="BackgroundImageFix" result="shape"/><feGaussianBlur stdDeviation="175" result="effect1_foregroundBlur_129_492"/></filter><filter id="filter2_f_129_492" x="1093.71" y="176" width="1026.94" height="1339.12" filterUnits="userSpaceOnUse" color-interpolation-filters="sRGB"><feFlood flood-opacity="0" result="BackgroundImageFix"/><feBlend in="SourceGraphic" in2="BackgroundImageFix" result="shape"/><feGaussianBlur stdDeviation="175" result="effect1_foregroundBlur_129_492"/></filter><filter id="filter3_f_129_492" x="1372.63" y="448.264" width="1038.89" height="1186.25" filterUnits="userSpaceOnUse" color-interpolation-filters="sRGB"><feFlood flood-opacity="0" result="BackgroundImageFix"/><feBlend in="SourceGraphic" in2="BackgroundImageFix" result="shape"/><feGaussianBlur stdDeviation="175" result="effect1_foregroundBlur_129_492"/></filter><clipPath id="clip0_129_492"><path fill="#fff" d="M0 0h1920v1080H0z"/></clipPath></defs></svg>