<svg width="1920" height="1080" fill="none" xmlns="http://www.w3.org/2000/svg"><g clip-path="url(#clip0_129_331)"><path fill="#fff" d="M0 0h1920v1080H0z"/><path fill="#0D0D0D" d="M0 0h1922v2041H0z"/><g opacity=".7" filter="url(#filter0_f_129_331)"><path d="M1434.5 107.944c4.39-65.526-47.92-166.385 17.5-162 65.41 4.385 114.39-121.526 110-56-53.26 15.406 63.43 208.418 38.5 245.556-65.42-4.385-170.39 37.97-166-27.556z" fill="#911100"/></g><g opacity=".7" filter="url(#filter1_f_129_331)"><path d="M734.511 12.661c120.863 68.014 222.073-2.33 157.276 112.816S575.502 237.109 481.229 286.754c-94.272 49.645-222.073 2.331-157.276-112.815C388.75 58.792 613.648-55.353 734.511 12.661z" fill="#5A190B"/></g><g opacity=".9"><g opacity=".8" filter="url(#filter2_f_129_331)"><path d="M521.907 804.5c128.206-2.083 505.223 213.84 507.093 329.03 1.87 115.19-222.877-27.92-252.322 67.2C747.232 1295.85 333.64 929.116 257.406 891c-1.871-115.19 136.294-84.417 264.501-86.5z" fill="#CB3A0E"/></g><g opacity=".8" filter="url(#filter3_f_129_331)"><path d="M1187.58 635.41c21.82 110.186-163.17 436.46-262.174 456.07-98.999 19.61-165.907-134.484-252.5-145.003-86.592-10.52 135.608-353.87 156.552-425.537 98.999-19.611 336.292 4.284 358.122 114.47z" fill="#390000"/></g><g opacity=".8" filter="url(#filter4_f_129_331)"><path d="M1600.46 972.227c-95.42 99.063-630.711 133.893-719.712 48.163-89.001-85.736 428.352-135.35 378.312-229.709-50.05-94.359 209.65 3.312 296.31-25.813 89 85.732 140.51 108.301 45.09 207.359z" fill="#6C1603"/></g></g></g><defs><filter id="filter0_f_129_331" x="1118.83" y="-428.993" width="785.209" height="873.95" filterUnits="userSpaceOnUse" color-interpolation-filters="sRGB"><feFlood flood-opacity="0" result="BackgroundImageFix"/><feBlend in="SourceGraphic" in2="BackgroundImageFix" result="shape"/><feGaussianBlur stdDeviation="150" result="effect1_foregroundBlur_129_331"/></filter><filter id="filter1_f_129_331" x="-43.674" y="-357.767" width="1305.69" height="1014.1" filterUnits="userSpaceOnUse" color-interpolation-filters="sRGB"><feFlood flood-opacity="0" result="BackgroundImageFix"/><feBlend in="SourceGraphic" in2="BackgroundImageFix" result="shape"/><feGaussianBlur stdDeviation="175" result="effect1_foregroundBlur_129_331"/></filter><filter id="filter2_f_129_331" x="-142.612" y="402.254" width="1571.62" height="1214.17" filterUnits="userSpaceOnUse" color-interpolation-filters="sRGB"><feFlood flood-opacity="0" result="BackgroundImageFix"/><feBlend in="SourceGraphic" in2="BackgroundImageFix" result="shape"/><feGaussianBlur stdDeviation="200" result="effect1_foregroundBlur_129_331"/></filter><filter id="filter3_f_129_331" x="252.966" y="114.733" width="1336.38" height="1378.47" filterUnits="userSpaceOnUse" color-interpolation-filters="sRGB"><feFlood flood-opacity="0" result="BackgroundImageFix"/><feBlend in="SourceGraphic" in2="BackgroundImageFix" result="shape"/><feGaussianBlur stdDeviation="200" result="effect1_foregroundBlur_129_331"/></filter><filter id="filter4_f_129_331" x="470.429" y="348.496" width="1581.17" height="1120.53" filterUnits="userSpaceOnUse" color-interpolation-filters="sRGB"><feFlood flood-opacity="0" result="BackgroundImageFix"/><feBlend in="SourceGraphic" in2="BackgroundImageFix" result="shape"/><feGaussianBlur stdDeviation="200" result="effect1_foregroundBlur_129_331"/></filter><clipPath id="clip0_129_331"><path fill="#fff" d="M0 0h1920v1080H0z"/></clipPath></defs></svg>