<svg width="1920" height="1072" fill="none" xmlns="http://www.w3.org/2000/svg"><g clip-path="url(#clip0_151_77)"><path fill="#fff" d="M0 0h1920v1072H0z"/><path fill="#0D0D0D" d="M0 0h1921.78v1080H0z"/><g opacity=".8" filter="url(#filter0_f_151_77)"><path d="M1418.89 374.594c14.38 148.541-193.36 521.422-326.82 534.341-133.458 12.919 11.6-261.168-101.503-286.453-113.099-25.285 216.373-433.989 253.483-525.986 133.46-12.919 160.46 129.557 174.84 278.098z" fill="#BF3A11"/></g><g filter="url(#filter1_f_151_77)"><path d="M710.571 447.31c150.007 34.748 256.189 135.246 221.5 284.999-34.69 149.754 23.006 355.751-127.001 321.001-15.678-129.033-172.4-268.362-248.999-340 34.689-149.754 4.493-300.749 154.5-266z" fill="#FF5001"/></g><g filter="url(#filter2_f_151_77)"><path d="M1028.69 575.134c139.26 11.985 215.83 61.698 203.82 201.148-12 139.45-207.71 141.333-273.891 230.798-66.182 89.46-215.828-61.7-203.828-201.15 12.001-139.45 134.628-242.781 273.899-230.796z" fill="#200101"/></g></g><defs><filter id="filter0_f_151_77" x="617.043" y="-254.321" width="1152.56" height="1513.7" filterUnits="userSpaceOnUse" color-interpolation-filters="sRGB"><feFlood flood-opacity="0" result="BackgroundImageFix"/><feBlend in="SourceGraphic" in2="BackgroundImageFix" result="shape"/><feGaussianBlur stdDeviation="175" result="effect1_foregroundBlur_151_77"/></filter><filter id="filter1_f_151_77" x="156.071" y="42.269" width="1182.6" height="1414.92" filterUnits="userSpaceOnUse" color-interpolation-filters="sRGB"><feFlood flood-opacity="0" result="BackgroundImageFix"/><feBlend in="SourceGraphic" in2="BackgroundImageFix" result="shape"/><feGaussianBlur stdDeviation="200" result="effect1_foregroundBlur_151_77"/></filter><filter id="filter2_f_151_77" x="404.11" y="224.188" width="1179.63" height="1159.76" filterUnits="userSpaceOnUse" color-interpolation-filters="sRGB"><feFlood flood-opacity="0" result="BackgroundImageFix"/><feBlend in="SourceGraphic" in2="BackgroundImageFix" result="shape"/><feGaussianBlur stdDeviation="175" result="effect1_foregroundBlur_151_77"/></filter><clipPath id="clip0_151_77"><path fill="#fff" d="M0 0h1920v1072H0z"/></clipPath></defs></svg>