<svg width="1920" height="1147" fill="none" xmlns="http://www.w3.org/2000/svg"><g clip-path="url(#clip0_142_280)"><path fill="#fff" d="M0 0h1920v1147H0z"/><path fill="#0D0D0D" d="M0 0h1922v2041H0z"/><g opacity=".7" filter="url(#filter0_f_142_280)"><path d="M1817.26 970.137c97.12-33.814 154.51-46.802 184.89 40.463 30.38 87.26-78.11 153.57-76.62 233.43 1.48 79.85-182.42 195.86-250.06 185.99-30.38-87.26 44.66-426.07 141.79-459.883z" fill="#4F0101"/></g><g opacity=".7" filter="url(#filter1_f_142_280)"><path d="M1702.49 1192.6c-64.6 99.9-107.74 152.54-197.5 94.5-89.76-58.04-37.88-195.68-96-267.5-58.11-71.82 27.25-308.421 96-347.5 89.76 58.045 262.11 420.6 197.5 520.5z" fill="#721B00"/></g><g opacity=".7" filter="url(#filter2_f_142_280)"><path d="M1445.49 1245.1c-64.6 99.9-523.237 83.55-612.996 25.5-89.759-58.04 355.116-113.18 296.996-185-58.11-71.82 102.75-105.421 171.5-144.5 89.76 58.045 209.11 204.1 144.5 304z" fill="#B83107"/></g><g opacity=".7" filter="url(#filter3_f_142_280)"><path d="M254.483-214.695C379.29-171.05 447.436-138.228 408.222-26.092c-39.214 112.135-201.448 92.11-263.819 173.671-62.371 81.56-340.262 51.252-400.458-12.783C-216.841 22.66 129.676-258.34 254.483-214.695z" fill="#721B00"/></g><g opacity=".7" filter="url(#filter4_f_142_280)"><path d="M99.7 193.644c-67.328-25.88 31.648-40.098 54.9-100.591 23.253-60.493-24.204-51.685 11.166-95.12 35.37-43.434 361.236-93.312 392.992-57.39C535.506 1.036 167.029 219.524 99.7 193.644z" fill="#BA5116"/></g></g><defs><filter id="filter0_f_142_280" x="1318.63" y="594.364" width="1038.89" height="1186.25" filterUnits="userSpaceOnUse" color-interpolation-filters="sRGB"><feFlood flood-opacity="0" result="BackgroundImageFix"/><feBlend in="SourceGraphic" in2="BackgroundImageFix" result="shape"/><feGaussianBlur stdDeviation="175" result="effect1_foregroundBlur_142_280"/></filter><filter id="filter1_f_142_280" x="1039.71" y="322.1" width="1026.94" height="1339.12" filterUnits="userSpaceOnUse" color-interpolation-filters="sRGB"><feFlood flood-opacity="0" result="BackgroundImageFix"/><feBlend in="SourceGraphic" in2="BackgroundImageFix" result="shape"/><feGaussianBlur stdDeviation="175" result="effect1_foregroundBlur_142_280"/></filter><filter id="filter2_f_142_280" x="470.488" y="591.1" width="1343.4" height="1076.03" filterUnits="userSpaceOnUse" color-interpolation-filters="sRGB"><feFlood flood-opacity="0" result="BackgroundImageFix"/><feBlend in="SourceGraphic" in2="BackgroundImageFix" result="shape"/><feGaussianBlur stdDeviation="175" result="effect1_foregroundBlur_142_280"/></filter><filter id="filter3_f_142_280" x="-606.055" y="-569.259" width="1375.35" height="1116.21" filterUnits="userSpaceOnUse" color-interpolation-filters="sRGB"><feFlood flood-opacity="0" result="BackgroundImageFix"/><feBlend in="SourceGraphic" in2="BackgroundImageFix" result="shape"/><feGaussianBlur stdDeviation="175" result="effect1_foregroundBlur_142_280"/></filter><filter id="filter4_f_142_280" x="-273.399" y="-421.77" width="1182.16" height="967.533" filterUnits="userSpaceOnUse" color-interpolation-filters="sRGB"><feFlood flood-opacity="0" result="BackgroundImageFix"/><feBlend in="SourceGraphic" in2="BackgroundImageFix" result="shape"/><feGaussianBlur stdDeviation="175" result="effect1_foregroundBlur_142_280"/></filter><clipPath id="clip0_142_280"><path fill="#fff" d="M0 0h1920v1147H0z"/></clipPath></defs></svg>