<svg width="1000" height="299" fill="none" xmlns="http://www.w3.org/2000/svg"><g filter="url(#filter0_d_151_88)"><path d="M201.488 101.248V81.8h-100.64V177h100.64v-19.448h-76.16V138.24h76.16v-17.68h-76.16v-19.312h76.16zm126.671 28.016V81.8h-24.48v47.464c0 13.192-3.672 28.56-35.36 28.56s-35.36-15.232-35.36-28.56V81.8h-24.48v47.464c0 33.184 17.952 49.096 59.84 49.096 41.752 0 59.84-16.048 59.84-49.096zM433.162 81.8v71.536L368.154 81.8H334.97V177h24.48v-71.4l64.872 71.4h33.32V81.8h-24.48zm89.169 96.56c41.752 0 59.84-17.544 59.84-49.096 0-31.416-18.088-48.824-59.84-48.824-41.888 0-59.84 17.272-59.84 48.824 0 31.688 17.952 49.096 59.84 49.096zm0-20.536c-25.432 0-35.36-8.976-35.36-28.56 0-19.448 9.792-28.288 35.36-28.288 25.568 0 35.36 8.976 35.36 28.288 0 19.448-9.928 28.56-35.36 28.56zM733.477 81.8h-33.048l-39.847 67.184L620.733 81.8h-33.048V177h24.48v-65.28L651.741 177h17.681l39.576-65.28V177h24.479V81.8zm32.007 0h-24.48V177h24.48V81.8zM872.166 177h27.064l-49.232-95.2H816.95L767.854 177h26.928l10.2-20.264h56.984l10.2 20.264zm-58.072-38.488l19.448-38.624 19.312 38.624h-38.76z" fill="url(#paint0_linear_151_88)" shape-rendering="crispEdges"/></g><defs><linearGradient id="paint0_linear_151_88" x1="510" y1="65.5" x2="508.5" y2="214.5" gradientUnits="userSpaceOnUse"><stop stop-color="#fff"/><stop offset="1" stop-color="#7A7A7A" stop-opacity=".84"/></linearGradient><filter id="filter0_d_151_88" x=".848" y=".44" width="998.381" height="297.92" filterUnits="userSpaceOnUse" color-interpolation-filters="sRGB"><feFlood flood-opacity="0" result="BackgroundImageFix"/><feColorMatrix in="SourceAlpha" values="0 0 0 0 0 0 0 0 0 0 0 0 0 0 0 0 0 0 127 0" result="hardAlpha"/><feOffset dy="20"/><feGaussianBlur stdDeviation="50"/><feComposite in2="hardAlpha" operator="out"/><feColorMatrix values="0 0 0 0 0 0 0 0 0 0 0 0 0 0 0 0 0 0 0.35 0"/><feBlend in2="BackgroundImageFix" result="effect1_dropShadow_151_88"/><feBlend in="SourceGraphic" in2="effect1_dropShadow_151_88" result="shape"/></filter></defs></svg>