<svg width="1920" height="1995" fill="none" xmlns="http://www.w3.org/2000/svg"><g clip-path="url(#clip0_142_107)"><path fill="#fff" d="M0 0h1920v1995H0z"/><path fill="#0D0D0D" d="M0 0h1922v2041H0z"/><g opacity=".6" filter="url(#filter0_f_142_107)"><path d="M600.681 173.553c73.896 66.349 139.861 342.633 80.248 409.026-59.612 66.394-111.848-133.249-178.671-94.747-66.823 38.501-89.232-310.127-112.442-371.925 59.612-66.394 136.969-8.702 210.865 57.646z" fill="#E24B1C"/></g><g filter="url(#filter1_f_142_107)"><path d="M1283.93 377.374c98.78 22.882 168.7 89.059 145.86 187.671-22.85 98.612 15.15 234.259-83.63 211.377-10.33-84.967-113.53-176.714-163.97-223.888 22.84-98.612 2.96-198.042 101.74-175.16z" fill="#CE4203"/></g></g><defs><filter id="filter0_f_142_107" x="39.816" y="-263.507" width="1014.25" height="1209.72" filterUnits="userSpaceOnUse" color-interpolation-filters="sRGB"><feFlood flood-opacity="0" result="BackgroundImageFix"/><feBlend in="SourceGraphic" in2="BackgroundImageFix" result="shape"/><feGaussianBlur stdDeviation="175" result="effect1_foregroundBlur_142_107"/></filter><filter id="filter1_f_142_107" x="782.192" y="-25.945" width="1051.94" height="1204.92" filterUnits="userSpaceOnUse" color-interpolation-filters="sRGB"><feFlood flood-opacity="0" result="BackgroundImageFix"/><feBlend in="SourceGraphic" in2="BackgroundImageFix" result="shape"/><feGaussianBlur stdDeviation="200" result="effect1_foregroundBlur_142_107"/></filter><clipPath id="clip0_142_107"><path fill="#fff" d="M0 0h1920v1995H0z"/></clipPath></defs></svg>