<svg width="111" height="42" fill="none" xmlns="http://www.w3.org/2000/svg"><g filter="url(#filter0_d_166_43)"><path d="M21.917 11.523V9.346H10.654V20h11.263v-2.176h-8.523v-2.162h8.523v-1.978h-8.523v-2.161h8.523zm14.175 3.135V9.346h-2.74v5.312c0 1.476-.41 3.196-3.956 3.196s-3.957-1.704-3.957-3.196V9.346h-2.74v5.312c0 3.714 2.01 5.494 6.697 5.494 4.672 0 6.696-1.796 6.696-5.494zm11.751-5.312v8.006l-7.275-8.006h-3.713V20h2.74v-7.99L46.853 20h3.729V9.346h-2.74zm9.979 10.806c4.672 0 6.696-1.963 6.696-5.494 0-3.516-2.024-5.464-6.696-5.464-4.688 0-6.697 1.933-6.697 5.464 0 3.546 2.01 5.494 6.697 5.494zm0-2.298c-2.846 0-3.957-1.004-3.957-3.196 0-2.176 1.096-3.166 3.957-3.166 2.861 0 3.957 1.005 3.957 3.166 0 2.176-1.111 3.196-3.957 3.196zM81.45 9.346h-3.698l-4.46 7.519-4.46-7.519h-3.698V20h2.74v-7.305L72.304 20h1.978l4.43-7.305V20h2.739V9.346zm3.582 0h-2.74V20h2.74V9.346zM96.97 20H100L94.49 9.346h-3.698L85.298 20h3.013l1.142-2.268h6.377L96.97 20zm-6.499-4.307l2.177-4.322 2.161 4.322h-4.338z" fill="url(#paint0_linear_166_43)" shape-rendering="crispEdges"/></g><path opacity=".7" d="M10.941 39.084v-7.65h5.14v.855h-4.198v2.867h3.668v.866h-3.668v3.062h-.942zm7.419 0h-.941v-7.65h.941v7.65zm1.88-7.65h.941v6.795h4.198v.855h-5.14v-7.65zm6.213 7.65v-7.65h1.428l2.294 4.21 2.262-4.21h1.395v7.65h-.941V32.43l-2.521 4.652h-.433l-2.543-4.652v6.654h-.941z" fill="#fff"/><defs><linearGradient id="paint0_linear_166_43" x1="25.08" y1="6" x2="69.784" y2="23.467" gradientUnits="userSpaceOnUse"><stop stop-color="#F8F8F8"/><stop offset="1" stop-color="#EFEFEF" stop-opacity=".84"/></linearGradient><filter id="filter0_d_166_43" x=".085" y=".739" width="110.484" height="32.096" filterUnits="userSpaceOnUse" color-interpolation-filters="sRGB"><feFlood flood-opacity="0" result="BackgroundImageFix"/><feColorMatrix in="SourceAlpha" values="0 0 0 0 0 0 0 0 0 0 0 0 0 0 0 0 0 0 127 0" result="hardAlpha"/><feOffset dy="2.114"/><feGaussianBlur stdDeviation="5.285"/><feComposite in2="hardAlpha" operator="out"/><feColorMatrix values="0 0 0 0 0 0 0 0 0 0 0 0 0 0 0 0 0 0 0.35 0"/><feBlend in2="BackgroundImageFix" result="effect1_dropShadow_166_43"/><feBlend in="SourceGraphic" in2="effect1_dropShadow_166_43" result="shape"/></filter></defs></svg>