<svg width="1920" height="1080" fill="none" xmlns="http://www.w3.org/2000/svg"><g clip-path="url(#clip0_113_686)"><path fill="#fff" d="M0 0h1920v1080H0z"/><path fill="#0D0D0D" d="M0 0h1921.78v1080H0z"/><g opacity=".8" filter="url(#filter0_f_113_686)"><path d="M1545.95 653.2c-53.19 155.183-447.43 445.56-586.856 397.77-139.428-47.79 130.426-256.069 28.753-332.827-101.671-76.759 430.673-347.601 509.663-422.777 139.43 47.792 101.63 202.651 48.44 357.834z" fill="#CB3A0E"/></g><g filter="url(#filter1_f_113_686)"><path d="M784.189 424.951c126.81 97.277 183.966 237.852 86.855 364.448-97.112 126.596-131.091 346.021-257.902 248.751 40.618-128.66-47.61-327.636-89.211-428.234 97.111-126.596 133.447-282.241 260.258-184.965z" fill="#FF5001"/></g><g filter="url(#filter2_f_113_686)"><path d="M1006.65 778.402c126.45 71.154 177.43 151.018 106.18 277.628-71.25 126.61-337.492 128.53-438.46 184.63-100.967 56.1-177.426-151.02-106.179-277.63 71.247-126.608 312.019-255.781 438.459-184.628z" fill="#200101"/></g></g><defs><filter id="filter0_f_113_686" x="568.159" y="-54.635" width="1375.86" height="1460.85" filterUnits="userSpaceOnUse" color-interpolation-filters="sRGB"><feFlood flood-opacity="0" result="BackgroundImageFix"/><feBlend in="SourceGraphic" in2="BackgroundImageFix" result="shape"/><feGaussianBlur stdDeviation="175" result="effect1_foregroundBlur_113_686"/></filter><filter id="filter1_f_113_686" x="123.931" y="-5.53" width="1196.02" height="1467.85" filterUnits="userSpaceOnUse" color-interpolation-filters="sRGB"><feFlood flood-opacity="0" result="BackgroundImageFix"/><feBlend in="SourceGraphic" in2="BackgroundImageFix" result="shape"/><feGaussianBlur stdDeviation="200" result="effect1_foregroundBlur_113_686"/></filter><filter id="filter2_f_113_686" x="190.358" y="408.123" width="1304.89" height="1191.97" filterUnits="userSpaceOnUse" color-interpolation-filters="sRGB"><feFlood flood-opacity="0" result="BackgroundImageFix"/><feBlend in="SourceGraphic" in2="BackgroundImageFix" result="shape"/><feGaussianBlur stdDeviation="175" result="effect1_foregroundBlur_113_686"/></filter><clipPath id="clip0_113_686"><path fill="#fff" d="M0 0h1920v1080H0z"/></clipPath></defs></svg>